REM DIRINDEX 1\2\4\18,1\2\4\19,1\2\5\20,1\2\5\21,1\2\6\22,1\2\6\23,1\2\7\24,1\2\8\25,1\2\9\26,1\2\10\27,1\2\10\28,1\3\11\29,1\3\11\30,1\3\11\31,1\3\11\32,1\3\12\33,1\3\12\34,1\3\12\35,1\3\12\36,1\3\13\37,1\3\13\38,1\3\13\39,1\3\13\40,1\3\14\41,1\3\14\42,1\3\15\43,1\3\15\44,1\3\16\45,1\3\16\46,1\3\17\47,1\3\17\48,1\3\17\49,1\3\17\50
REM DIRNAME cjc135,folder01,folder02,folder03,folder04,folder05,folder06,folder07,folder08,folder09,folder10,folder11,folder12,folder13,folder14,folder15,folder16,folder17,folder18,folder19,folder20,folder21,folder22,folder23,folder24,folder25,folder26,folder27,folder28,folder29,folder30,folder31,folder32,folder33,folder34,folder35,folder36,folder37,folder38,folder39,folder40,folder41,folder42,folder43,folder44,folder45,folder46,folder47,folder48,folder49
TITLE ""
FILE "16.mp3" MP3
  TRACK 01 AUDIO
    TITLE "0:"
    INDEX 01 00:00:00
  TRACK 02 AUDIO
    TITLE "47:cjc135_7256"
    INDEX 01 00:00:13
  TRACK 03 AUDIO
    TITLE "0:"
    INDEX 01 00:01:44
  TRACK 04 AUDIO
    TITLE "48:cjc135_7257"
    INDEX 01 00:02:20
  TRACK 05 AUDIO
    TITLE "0:"
    INDEX 01 00:04:62
  TRACK 06 AUDIO
    TITLE "49:cjc135_7258"
    INDEX 01 00:05:14
  TRACK 07 AUDIO
    TITLE "0:"
    INDEX 01 00:07:41
  TRACK 08 AUDIO
    TITLE "50:cjc135_7259"
    INDEX 01 00:07:68
  TRACK 09 AUDIO
    TITLE "0:"
    INDEX 01 00:10:21
  TRACK 10 AUDIO
    TITLE "47:cjc135_7260"
    INDEX 01 00:11:19
  TRACK 11 AUDIO
    TITLE "0:"
    INDEX 01 00:12:50
  TRACK 12 AUDIO
    TITLE "48:cjc135_7261"
    INDEX 01 00:13:26
  TRACK 13 AUDIO
    TITLE "0:"
    INDEX 01 00:15:11
  TRACK 14 AUDIO
    TITLE "49:cjc135_7262"
    INDEX 01 00:15:48
  TRACK 15 AUDIO
    TITLE "0:"
    INDEX 01 00:17:43
  TRACK 16 AUDIO
    TITLE "50:cjc135_7263"
    INDEX 01 00:17:70
  TRACK 17 AUDIO
    TITLE "0:"
    INDEX 01 00:19:67
  TRACK 18 AUDIO
    TITLE "47:cjc135_7264"
    INDEX 01 00:20:67
  TRACK 19 AUDIO
    TITLE "0:"
    INDEX 01 00:22:38
  TRACK 20 AUDIO
    TITLE "48:cjc135_7265"
    INDEX 01 00:23:12
  TRACK 21 AUDIO
    TITLE "0:"
    INDEX 01 00:25:23
  TRACK 22 AUDIO
    TITLE "49:cjc135_7266"
    INDEX 01 00:25:46
  TRACK 23 AUDIO
    TITLE "0:"
    INDEX 01 00:27:53
  TRACK 24 AUDIO
    TITLE "50:cjc135_7267"
    INDEX 01 00:28:08
  TRACK 25 AUDIO
    TITLE "0:"
    INDEX 01 00:30:08
  TRACK 26 AUDIO
    TITLE "47:cjc135_7268"
    INDEX 01 00:31:08
  TRACK 27 AUDIO
    TITLE "0:"
    INDEX 01 00:32:29
  TRACK 28 AUDIO
    TITLE "48:cjc135_7269"
    INDEX 01 00:33:07
  TRACK 29 AUDIO
    TITLE "0:"
    INDEX 01 00:35:55
  TRACK 30 AUDIO
    TITLE "49:cjc135_7270"
    INDEX 01 00:36:09
  TRACK 31 AUDIO
    TITLE "0:"
    INDEX 01 00:39:09
  TRACK 32 AUDIO
    TITLE "50:cjc135_7271"
    INDEX 01 00:39:35
  TRACK 33 AUDIO
    TITLE "0:"
    INDEX 01 00:42:31
  TRACK 34 AUDIO
    TITLE "47:cjc135_7272"
    INDEX 01 00:43:35
  TRACK 35 AUDIO
    TITLE "0:"
    INDEX 01 00:45:65
  TRACK 36 AUDIO
    TITLE "48:cjc135_7273"
    INDEX 01 00:46:39
  TRACK 37 AUDIO
    TITLE "0:"
    INDEX 01 00:48:71
  TRACK 38 AUDIO
    TITLE "49:cjc135_7274"
    INDEX 01 00:49:21
  TRACK 39 AUDIO
    TITLE "0:"
    INDEX 01 00:52:16
  TRACK 40 AUDIO
    TITLE "50:cjc135_7275"
    INDEX 01 00:52:41
  TRACK 41 AUDIO
    TITLE "0:"
    INDEX 01 00:55:38
  TRACK 42 AUDIO
    TITLE "47:cjc135_7276"
    INDEX 01 00:56:37
  TRACK 43 AUDIO
    TITLE "0:"
    INDEX 01 00:57:56
  TRACK 44 AUDIO
    TITLE "48:cjc135_7277"
    INDEX 01 00:58:32
  TRACK 45 AUDIO
    TITLE "0:"
    INDEX 01 01:00:55
  TRACK 46 AUDIO
    TITLE "49:cjc135_7278"
    INDEX 01 01:01:07
  TRACK 47 AUDIO
    TITLE "0:"
    INDEX 01 01:03:22
  TRACK 48 AUDIO
    TITLE "50:cjc135_7279"
    INDEX 01 01:03:47
  TRACK 49 AUDIO
    TITLE "0:"
    INDEX 01 01:05:62
  TRACK 50 AUDIO
    TITLE "47:cjc135_7280"
    INDEX 01 01:06:63
  TRACK 51 AUDIO
    TITLE "0:"
    INDEX 01 01:08:05
  TRACK 52 AUDIO
    TITLE "48:cjc135_7281"
    INDEX 01 01:08:54
  TRACK 53 AUDIO
    TITLE "0:"
    INDEX 01 01:10:43
  TRACK 54 AUDIO
    TITLE "49:cjc135_7282"
    INDEX 01 01:10:69
  TRACK 55 AUDIO
    TITLE "0:"
    INDEX 01 01:12:56
  TRACK 56 AUDIO
    TITLE "50:cjc135_7283"
    INDEX 01 01:13:04
  TRACK 57 AUDIO
    TITLE "0:"
    INDEX 01 01:14:65
  TRACK 58 AUDIO
    TITLE "47:cjc135_7284"
    INDEX 01 01:15:64
  TRACK 59 AUDIO
    TITLE "0:"
    INDEX 01 01:17:26
  TRACK 60 AUDIO
    TITLE "48:cjc135_7285"
    INDEX 01 01:18:02
  TRACK 61 AUDIO
    TITLE "0:"
    INDEX 01 01:21:02
  TRACK 62 AUDIO
    TITLE "49:cjc135_7286"
    INDEX 01 01:21:25
  TRACK 63 AUDIO
    TITLE "0:"
    INDEX 01 01:24:39
  TRACK 64 AUDIO
    TITLE "50:cjc135_7287"
    INDEX 01 01:24:63
  TRACK 65 AUDIO
    TITLE "0:"
    INDEX 01 01:28:02
  TRACK 66 AUDIO
    TITLE "47:cjc135_7288"
    INDEX 01 01:28:74
  TRACK 67 AUDIO
    TITLE "0:"
    INDEX 01 01:30:52
  TRACK 68 AUDIO
    TITLE "48:cjc135_7289"
    INDEX 01 01:31:30
  TRACK 69 AUDIO
    TITLE "0:"
    INDEX 01 01:33:62
  TRACK 70 AUDIO
    TITLE "49:cjc135_7290"
    INDEX 01 01:34:14
  TRACK 71 AUDIO
    TITLE "0:"
    INDEX 01 01:38:02
  TRACK 72 AUDIO
    TITLE "50:cjc135_7291"
    INDEX 01 01:38:24
  TRACK 73 AUDIO
    TITLE "0:"
    INDEX 01 01:42:10
  TRACK 74 AUDIO
    TITLE "47:cjc135_7292"
    INDEX 01 01:43:09
  TRACK 75 AUDIO
    TITLE "0:"
    INDEX 01 01:44:26
  TRACK 76 AUDIO
    TITLE "48:cjc135_7293"
    INDEX 01 01:45:00
  TRACK 77 AUDIO
    TITLE "0:"
    INDEX 01 01:47:37
  TRACK 78 AUDIO
    TITLE "49:cjc135_7294"
    INDEX 01 01:47:62
  TRACK 79 AUDIO
    TITLE "0:"
    INDEX 01 01:50:47
  TRACK 80 AUDIO
    TITLE "50:cjc135_7295"
    INDEX 01 01:50:70
  TRACK 81 AUDIO
    TITLE "0:"
    INDEX 01 01:53:53
  TRACK 82 AUDIO
    TITLE "47:cjc135_7296"
    INDEX 01 01:54:52
  TRACK 83 AUDIO
    TITLE "0:"
    INDEX 01 01:56:14
  TRACK 84 AUDIO
    TITLE "48:cjc135_7297"
    INDEX 01 01:56:67
  TRACK 85 AUDIO
    TITLE "0:"
    INDEX 01 01:59:40
  TRACK 86 AUDIO
    TITLE "49:cjc135_7298"
    INDEX 01 01:59:65
  TRACK 87 AUDIO
    TITLE "0:"
    INDEX 01 02:01:56
  TRACK 88 AUDIO
    TITLE "50:cjc135_7299"
    INDEX 01 02:02:01
  TRACK 89 AUDIO
    TITLE "0:"
    INDEX 01 02:03:65
  TRACK 90 AUDIO
    TITLE "47:cjc135_7300"
    INDEX 01 02:04:64
  TRACK 91 AUDIO
    TITLE "0:"
    INDEX 01 02:06:22
  TRACK 92 AUDIO
    TITLE "48:cjc135_7301"
    INDEX 01 02:07:02
  TRACK 93 AUDIO
    TITLE "0:"
    INDEX 01 02:10:00
  TRACK 94 AUDIO
    TITLE "49:cjc135_7302"
    INDEX 01 02:10:24
  TRACK 95 AUDIO
    TITLE "0:"
    INDEX 01 02:12:50
  TRACK 96 AUDIO
    TITLE "50:cjc135_7303"
    INDEX 01 02:12:74
  TRACK 97 AUDIO
    TITLE "0:"
    INDEX 01 02:15:23
  TRACK 98 AUDIO
    TITLE "47:cjc135_7304"
    INDEX 01 02:16:24
  TRACK 99 AUDIO
    TITLE "0:"
    INDEX 01 02:17:67
  TRACK 100 AUDIO
    TITLE "48:cjc135_7305"
    INDEX 01 02:18:45
  TRACK 101 AUDIO
    TITLE "0:"
    INDEX 01 02:21:59
  TRACK 102 AUDIO
    TITLE "49:cjc135_7306"
    INDEX 01 02:22:11
  TRACK 103 AUDIO
    TITLE "0:"
    INDEX 01 02:24:38
  TRACK 104 AUDIO
    TITLE "50:cjc135_7307"
    INDEX 01 02:24:61
  TRACK 105 AUDIO
    TITLE "0:"
    INDEX 01 02:27:13
  TRACK 106 AUDIO
    TITLE "47:cjc135_7308"
    INDEX 01 02:28:12
  TRACK 107 AUDIO
    TITLE "0:"
    INDEX 01 02:29:35
  TRACK 108 AUDIO
    TITLE "48:cjc135_7309"
    INDEX 01 02:30:13
  TRACK 109 AUDIO
    TITLE "0:"
    INDEX 01 02:33:23
  TRACK 110 AUDIO
    TITLE "49:cjc135_7310"
    INDEX 01 02:33:46
  TRACK 111 AUDIO
    TITLE "0:"
    INDEX 01 02:35:53
  TRACK 112 AUDIO
    TITLE "50:cjc135_7311"
    INDEX 01 02:36:02
  TRACK 113 AUDIO
    TITLE "0:"
    INDEX 01 02:38:08
  TRACK 114 AUDIO
    TITLE "47:cjc135_7312"
    INDEX 01 02:39:04
  TRACK 115 AUDIO
    TITLE "0:"
    INDEX 01 02:40:19
  TRACK 116 AUDIO
    TITLE "48:cjc135_7313"
    INDEX 01 02:40:70
  TRACK 117 AUDIO
    TITLE "0:"
    INDEX 01 02:43:17
  TRACK 118 AUDIO
    TITLE "49:cjc135_7314"
    INDEX 01 02:43:43
  TRACK 119 AUDIO
    TITLE "0:"
    INDEX 01 02:45:61
  TRACK 120 AUDIO
    TITLE "50:cjc135_7315"
    INDEX 01 02:46:12
  TRACK 121 AUDIO
    TITLE "0:"
    INDEX 01 02:48:32
  TRACK 122 AUDIO
    TITLE "47:cjc135_7316"
    INDEX 01 02:49:32
  TRACK 123 AUDIO
    TITLE "0:"
    INDEX 01 02:50:41
  TRACK 124 AUDIO
    TITLE "48:cjc135_7317"
    INDEX 01 02:51:17
  TRACK 125 AUDIO
    TITLE "0:"
    INDEX 01 02:53:14
  TRACK 126 AUDIO
    TITLE "49:cjc135_7318"
    INDEX 01 02:53:49
  TRACK 127 AUDIO
    TITLE "0:"
    INDEX 01 02:55:27
  TRACK 128 AUDIO
    TITLE "50:cjc135_7319"
    INDEX 01 02:55:58
  TRACK 129 AUDIO
    TITLE "0:"
    INDEX 01 02:57:35
  TRACK 130 AUDIO
    TITLE "47:cjc135_7320"
    INDEX 01 02:58:35
  TRACK 131 AUDIO
    TITLE "0:"
    INDEX 01 02:59:44
  TRACK 132 AUDIO
    TITLE "48:cjc135_7321"
    INDEX 01 03:00:20
  TRACK 133 AUDIO
    TITLE "0:"
    INDEX 01 03:02:11
  TRACK 134 AUDIO
    TITLE "49:cjc135_7322"
    INDEX 01 03:02:38
  TRACK 135 AUDIO
    TITLE "0:"
    INDEX 01 03:04:22
  TRACK 136 AUDIO
    TITLE "50:cjc135_7323"
    INDEX 01 03:04:47
  TRACK 137 AUDIO
    TITLE "0:"
    INDEX 01 03:06:26
  TRACK 138 AUDIO
    TITLE "47:cjc135_7324"
    INDEX 01 03:07:28
  TRACK 139 AUDIO
    TITLE "0:"
    INDEX 01 03:08:35
  TRACK 140 AUDIO
    TITLE "48:cjc135_7325"
    INDEX 01 03:09:13
  TRACK 141 AUDIO
    TITLE "0:"
    INDEX 01 03:10:61
  TRACK 142 AUDIO
    TITLE "49:cjc135_7326"
    INDEX 01 03:11:12
  TRACK 143 AUDIO
    TITLE "0:"
    INDEX 01 03:13:13
  TRACK 144 AUDIO
    TITLE "50:cjc135_7327"
    INDEX 01 03:13:40
  TRACK 145 AUDIO
    TITLE "0:"
    INDEX 01 03:15:41
  TRACK 146 AUDIO
    TITLE "47:cjc135_7328"
    INDEX 01 03:16:44
  TRACK 147 AUDIO
    TITLE "0:"
    INDEX 01 03:17:71
  TRACK 148 AUDIO
    TITLE "48:cjc135_7329"
    INDEX 01 03:18:49
  TRACK 149 AUDIO
    TITLE "0:"
    INDEX 01 03:20:44
  TRACK 150 AUDIO
    TITLE "49:cjc135_7330"
    INDEX 01 03:20:72
  TRACK 151 AUDIO
    TITLE "0:"
    INDEX 01 03:22:53
  TRACK 152 AUDIO
    TITLE "50:cjc135_7331"
    INDEX 01 03:23:05
  TRACK 153 AUDIO
    TITLE "0:"
    INDEX 01 03:24:61
  TRACK 154 AUDIO
    TITLE "47:cjc135_7332"
    INDEX 01 03:25:63
  TRACK 155 AUDIO
    TITLE "0:"
    INDEX 01 03:26:70
  TRACK 156 AUDIO
    TITLE "48:cjc135_7333"
    INDEX 01 03:27:48
  TRACK 157 AUDIO
    TITLE "0:"
    INDEX 01 03:29:69
  TRACK 158 AUDIO
    TITLE "49:cjc135_7334"
    INDEX 01 03:30:23
  TRACK 159 AUDIO
    TITLE "0:"
    INDEX 01 03:31:71
  TRACK 160 AUDIO
    TITLE "50:cjc135_7335"
    INDEX 01 03:32:22
  TRACK 161 AUDIO
    TITLE "0:"
    INDEX 01 03:33:74
  TRACK 162 AUDIO
    TITLE "47:cjc135_7336"
    INDEX 01 03:34:74
  TRACK 163 AUDIO
    TITLE "0:"
    INDEX 01 03:36:55
  TRACK 164 AUDIO
    TITLE "48:cjc135_7337"
    INDEX 01 03:37:33
  TRACK 165 AUDIO
    TITLE "0:"
    INDEX 01 03:39:47
  TRACK 166 AUDIO
    TITLE "49:cjc135_7338"
    INDEX 01 03:40:00
  TRACK 167 AUDIO
    TITLE "0:"
    INDEX 01 03:42:06
  TRACK 168 AUDIO
    TITLE "50:cjc135_7339"
    INDEX 01 03:42:32
  TRACK 169 AUDIO
    TITLE "0:"
    INDEX 01 03:44:37
  TRACK 170 AUDIO
    TITLE "47:cjc135_7340"
    INDEX 01 03:45:40
  TRACK 171 AUDIO
    TITLE "0:"
    INDEX 01 03:46:55
  TRACK 172 AUDIO
    TITLE "48:cjc135_7341"
    INDEX 01 03:47:33
  TRACK 173 AUDIO
    TITLE "0:"
    INDEX 01 03:49:26
  TRACK 174 AUDIO
    TITLE "49:cjc135_7342"
    INDEX 01 03:49:50
  TRACK 175 AUDIO
    TITLE "0:"
    INDEX 01 03:51:19
  TRACK 176 AUDIO
    TITLE "50:cjc135_7343"
    INDEX 01 03:51:47
  TRACK 177 AUDIO
    TITLE "0:"
    INDEX 01 03:53:14
  TRACK 178 AUDIO
    TITLE "47:cjc135_7344"
    INDEX 01 03:54:16
  TRACK 179 AUDIO
    TITLE "0:"
    INDEX 01 03:55:37
  TRACK 180 AUDIO
    TITLE "48:cjc135_7345"
    INDEX 01 03:56:14
  TRACK 181 AUDIO
    TITLE "0:"
    INDEX 01 03:59:05
  TRACK 182 AUDIO
    TITLE "49:cjc135_7346"
    INDEX 01 03:59:30
  TRACK 183 AUDIO
    TITLE "0:"
    INDEX 01 04:01:49
  TRACK 184 AUDIO
    TITLE "50:cjc135_7347"
    INDEX 01 04:01:74
  TRACK 185 AUDIO
    TITLE "0:"
    INDEX 01 04:04:20
  TRACK 186 AUDIO
    TITLE "47:cjc135_7348"
    INDEX 01 04:05:23
  TRACK 187 AUDIO
    TITLE "0:"
    INDEX 01 04:06:46
  TRACK 188 AUDIO
    TITLE "48:cjc135_7349"
    INDEX 01 04:07:24
  TRACK 189 AUDIO
    TITLE "0:"
    INDEX 01 04:10:28
  TRACK 190 AUDIO
    TITLE "49:cjc135_7350"
    INDEX 01 04:10:58
  TRACK 191 AUDIO
    TITLE "0:"
    INDEX 01 04:14:03
  TRACK 192 AUDIO
    TITLE "50:cjc135_7351"
    INDEX 01 04:14:28
  TRACK 193 AUDIO
    TITLE "0:"
    INDEX 01 04:17:46
  TRACK 194 AUDIO
    TITLE "47:cjc135_7352"
    INDEX 01 04:18:47
  TRACK 195 AUDIO
    TITLE "0:"
    INDEX 01 04:20:07
  TRACK 196 AUDIO
    TITLE "48:cjc135_7353"
    INDEX 01 04:20:58
  TRACK 197 AUDIO
    TITLE "0:"
    INDEX 01 04:22:61
  TRACK 198 AUDIO
    TITLE "49:cjc135_7354"
    INDEX 01 04:23:11
  TRACK 199 AUDIO
    TITLE "0:"
    INDEX 01 04:25:32
  TRACK 200 AUDIO
    TITLE "50:cjc135_7355"
    INDEX 01 04:25:55
  TRACK 201 AUDIO
    TITLE "0:"
    INDEX 01 04:27:74
  TRACK 202 AUDIO
    TITLE "47:cjc135_7356"
    INDEX 01 04:28:71
  TRACK 203 AUDIO
    TITLE "0:"
    INDEX 01 04:30:35
  TRACK 204 AUDIO
    TITLE "48:cjc135_7357"
    INDEX 01 04:31:09
  TRACK 205 AUDIO
    TITLE "0:"
    INDEX 01 04:33:16
  TRACK 206 AUDIO
    TITLE "49:cjc135_7358"
    INDEX 01 04:33:39
  TRACK 207 AUDIO
    TITLE "0:"
    INDEX 01 04:35:44
  TRACK 208 AUDIO
    TITLE "50:cjc135_7359"
    INDEX 01 04:35:73
  TRACK 209 AUDIO
    TITLE "0:"
    INDEX 01 04:38:01
  TRACK 210 AUDIO
    TITLE "47:cjc135_7360"
    INDEX 01 04:39:04
  TRACK 211 AUDIO
    TITLE "0:"
    INDEX 01 04:40:27
  TRACK 212 AUDIO
    TITLE "48:cjc135_7361"
    INDEX 01 04:41:01
  TRACK 213 AUDIO
    TITLE "0:"
    INDEX 01 04:42:71
  TRACK 214 AUDIO
    TITLE "49:cjc135_7362"
    INDEX 01 04:43:22
  TRACK 215 AUDIO
    TITLE "0:"
    INDEX 01 04:45:13
  TRACK 216 AUDIO
    TITLE "50:cjc135_7363"
    INDEX 01 04:45:40
  TRACK 217 AUDIO
    TITLE "0:"
    INDEX 01 04:47:31
  TRACK 218 AUDIO
    TITLE "47:cjc135_7364"
    INDEX 01 04:48:33
  TRACK 219 AUDIO
    TITLE "0:"
    INDEX 01 04:49:40
  TRACK 220 AUDIO
    TITLE "48:cjc135_7365"
    INDEX 01 04:50:18
  TRACK 221 AUDIO
    TITLE "0:"
    INDEX 01 04:52:52
  TRACK 222 AUDIO
    TITLE "49:cjc135_7366"
    INDEX 01 04:53:05
  TRACK 223 AUDIO
    TITLE "0:"
    INDEX 01 04:54:67
  TRACK 224 AUDIO
    TITLE "50:cjc135_7367"
    INDEX 01 04:55:17
  TRACK 225 AUDIO
    TITLE "0:"
    INDEX 01 04:57:06
  TRACK 226 AUDIO
    TITLE "47:cjc135_7368"
    INDEX 01 04:58:04
  TRACK 227 AUDIO
    TITLE "0:"
    INDEX 01 04:59:39
  TRACK 228 AUDIO
    TITLE "48:cjc135_7369"
    INDEX 01 05:00:12
  TRACK 229 AUDIO
    TITLE "0:"
    INDEX 01 05:03:07
  TRACK 230 AUDIO
    TITLE "49:cjc135_7370"
    INDEX 01 05:03:34
  TRACK 231 AUDIO
    TITLE "0:"
    INDEX 01 05:06:13
  TRACK 232 AUDIO
    TITLE "50:cjc135_7371"
    INDEX 01 05:06:41
  TRACK 233 AUDIO
    TITLE "0:"
    INDEX 01 05:09:23
  TRACK 234 AUDIO
    TITLE "47:cjc135_7372"
    INDEX 01 05:10:23
  TRACK 235 AUDIO
    TITLE "0:"
    INDEX 01 05:11:50
  TRACK 236 AUDIO
    TITLE "48:cjc135_7373"
    INDEX 01 05:12:25
  TRACK 237 AUDIO
    TITLE "0:"
    INDEX 01 05:14:56
  TRACK 238 AUDIO
    TITLE "49:cjc135_7374"
    INDEX 01 05:15:04
  TRACK 239 AUDIO
    TITLE "0:"
    INDEX 01 05:17:17
  TRACK 240 AUDIO
    TITLE "50:cjc135_7375"
    INDEX 01 05:17:40
  TRACK 241 AUDIO
    TITLE "0:"
    INDEX 01 05:19:49
  TRACK 242 AUDIO
    TITLE "47:cjc135_7376"
    INDEX 01 05:20:50
  TRACK 243 AUDIO
    TITLE "0:"
    INDEX 01 05:21:68
  TRACK 244 AUDIO
    TITLE "48:cjc135_7377"
    INDEX 01 05:22:45
  TRACK 245 AUDIO
    TITLE "0:"
    INDEX 01 05:24:62
  TRACK 246 AUDIO
    TITLE "49:cjc135_7378"
    INDEX 01 05:25:18
  TRACK 247 AUDIO
    TITLE "0:"
    INDEX 01 05:27:13
  TRACK 248 AUDIO
    TITLE "50:cjc135_7379"
    INDEX 01 05:27:47
  TRACK 249 AUDIO
    TITLE "0:"
    INDEX 01 05:29:44
  TRACK 250 AUDIO
    TITLE "47:cjc135_7380"
    INDEX 01 05:30:45
  TRACK 251 AUDIO
    TITLE "0:"
    INDEX 01 05:31:56
  TRACK 252 AUDIO
    TITLE "48:cjc135_7381"
    INDEX 01 05:32:32
  TRACK 253 AUDIO
    TITLE "0:"
    INDEX 01 05:35:50
  TRACK 254 AUDIO
    TITLE "49:cjc135_7382"
    INDEX 01 05:36:00
  TRACK 255 AUDIO
    TITLE "0:"
    INDEX 01 05:38:19
  TRACK 256 AUDIO
    TITLE "50:cjc135_7383"
    INDEX 01 05:38:44
  TRACK 257 AUDIO
    TITLE "0:"
    INDEX 01 05:40:65
  TRACK 258 AUDIO
    TITLE "47:cjc135_7384"
    INDEX 01 05:41:64
  TRACK 259 AUDIO
    TITLE "0:"
    INDEX 01 05:43:14
  TRACK 260 AUDIO
    TITLE "48:cjc135_7385"
    INDEX 01 05:43:69
  TRACK 261 AUDIO
    TITLE "0:"
    INDEX 01 05:46:40
  TRACK 262 AUDIO
    TITLE "49:cjc135_7386"
    INDEX 01 05:46:67
  TRACK 263 AUDIO
    TITLE "0:"
    INDEX 01 05:49:17
  TRACK 264 AUDIO
    TITLE "50:cjc135_7387"
    INDEX 01 05:49:42
  TRACK 265 AUDIO
    TITLE "0:"
    INDEX 01 05:51:69
  TRACK 266 AUDIO
    TITLE "47:cjc135_7388"
    INDEX 01 05:52:66
  TRACK 267 AUDIO
    TITLE "0:"
    INDEX 01 05:54:10
  TRACK 268 AUDIO
    TITLE "48:cjc135_7389"
    INDEX 01 05:54:59
  TRACK 269 AUDIO
    TITLE "0:"
    INDEX 01 05:58:73
  TRACK 270 AUDIO
    TITLE "49:cjc135_7390"
    INDEX 01 05:59:23
  TRACK 271 AUDIO
    TITLE "0:"
    INDEX 01 06:02:04
  TRACK 272 AUDIO
    TITLE "50:cjc135_7391"
    INDEX 01 06:02:29
  TRACK 273 AUDIO
    TITLE "0:"
    INDEX 01 06:05:14
  TRACK 274 AUDIO
    TITLE "47:cjc135_7392"
    INDEX 01 06:06:11
  TRACK 275 AUDIO
    TITLE "0:"
    INDEX 01 06:07:21
  TRACK 276 AUDIO
    TITLE "48:cjc135_7393"
    INDEX 01 06:07:70
  TRACK 277 AUDIO
    TITLE "0:"
    INDEX 01 06:10:46
  TRACK 278 AUDIO
    TITLE "49:cjc135_7394"
    INDEX 01 06:10:72
  TRACK 279 AUDIO
    TITLE "0:"
    INDEX 01 06:13:17
  TRACK 280 AUDIO
    TITLE "50:cjc135_7395"
    INDEX 01 06:13:45
  TRACK 281 AUDIO
    TITLE "0:"
    INDEX 01 06:15:65
  TRACK 282 AUDIO
    TITLE "47:cjc135_7396"
    INDEX 01 06:16:67
  TRACK 283 AUDIO
    TITLE "0:"
    INDEX 01 06:18:13
  TRACK 284 AUDIO
    TITLE "48:cjc135_7397"
    INDEX 01 06:18:62
  TRACK 285 AUDIO
    TITLE "0:"
    INDEX 01 06:21:33
  TRACK 286 AUDIO
    TITLE "49:cjc135_7398"
    INDEX 01 06:21:58
  TRACK 287 AUDIO
    TITLE "0:"
    INDEX 01 06:24:23
  TRACK 288 AUDIO
    TITLE "50:cjc135_7399"
    INDEX 01 06:24:47
  TRACK 289 AUDIO
    TITLE "0:"
    INDEX 01 06:27:14
  TRACK 290 AUDIO
    TITLE "47:cjc135_7400"
    INDEX 01 06:28:13
  TRACK 291 AUDIO
    TITLE "0:"
    INDEX 01 06:29:22
  TRACK 292 AUDIO
    TITLE "48:cjc135_7401"
    INDEX 01 06:30:00
  TRACK 293 AUDIO
    TITLE "0:"
    INDEX 01 06:33:71
  TRACK 294 AUDIO
    TITLE "49:cjc135_7402"
    INDEX 01 06:34:27
  TRACK 295 AUDIO
    TITLE "0:"
    INDEX 01 06:37:28
  TRACK 296 AUDIO
    TITLE "50:cjc135_7403"
    INDEX 01 06:37:51
  TRACK 297 AUDIO
    TITLE "0:"
    INDEX 01 06:40:51
  TRACK 298 AUDIO
    TITLE "47:cjc135_7404"
    INDEX 01 06:41:53
  TRACK 299 AUDIO
    TITLE "0:"
    INDEX 01 06:42:74
  TRACK 300 AUDIO
    TITLE "48:cjc135_7405"
    INDEX 01 06:43:52
  TRACK 301 AUDIO
    TITLE "0:"
    INDEX 01 06:46:25
  TRACK 302 AUDIO
    TITLE "49:cjc135_7406"
    INDEX 01 06:46:50
  TRACK 303 AUDIO
    TITLE "0:"
    INDEX 01 06:48:47
  TRACK 304 AUDIO
    TITLE "50:cjc135_7407"
    INDEX 01 06:48:74
  TRACK 305 AUDIO
    TITLE "0:"
    INDEX 01 06:51:00
  TRACK 306 AUDIO
    TITLE "47:cjc135_7408"
    INDEX 01 06:52:00
  TRACK 307 AUDIO
    TITLE "0:"
    INDEX 01 06:53:31
  TRACK 308 AUDIO
    TITLE "48:cjc135_7409"
    INDEX 01 06:54:14
  TRACK 309 AUDIO
    TITLE "0:"
    INDEX 01 06:58:04
  TRACK 310 AUDIO
    TITLE "49:cjc135_7410"
    INDEX 01 06:58:30
  TRACK 311 AUDIO
    TITLE "0:"
    INDEX 01 07:01:20
  TRACK 312 AUDIO
    TITLE "50:cjc135_7411"
    INDEX 01 07:01:46
  TRACK 313 AUDIO
    TITLE "0:"
    INDEX 01 07:04:34
  TRACK 314 AUDIO
    TITLE "47:cjc135_7412"
    INDEX 01 07:05:38
  TRACK 315 AUDIO
    TITLE "0:"
    INDEX 01 07:06:65
  TRACK 316 AUDIO
    TITLE "48:cjc135_7413"
    INDEX 01 07:07:40
  TRACK 317 AUDIO
    TITLE "0:"
    INDEX 01 07:09:22
  TRACK 318 AUDIO
    TITLE "49:cjc135_7414"
    INDEX 01 07:09:47
  TRACK 319 AUDIO
    TITLE "0:"
    INDEX 01 07:11:30
  TRACK 320 AUDIO
    TITLE "50:cjc135_7415"
    INDEX 01 07:11:54
  TRACK 321 AUDIO
    TITLE "0:"
    INDEX 01 07:13:37
  TRACK 322 AUDIO
    TITLE "47:cjc135_7416"
    INDEX 01 07:14:37
  TRACK 323 AUDIO
    TITLE "0:"
    INDEX 01 07:15:56
  TRACK 324 AUDIO
    TITLE "48:cjc135_7417"
    INDEX 01 07:16:30
  TRACK 325 AUDIO
    TITLE "0:"
    INDEX 01 07:18:13
  TRACK 326 AUDIO
    TITLE "49:cjc135_7418"
    INDEX 01 07:18:40
  TRACK 327 AUDIO
    TITLE "0:"
    INDEX 01 07:20:61
  TRACK 328 AUDIO
    TITLE "50:cjc135_7419"
    INDEX 01 07:21:11
  TRACK 329 AUDIO
    TITLE "0:"
    INDEX 01 07:23:36
  TRACK 330 AUDIO
    TITLE "47:cjc135_7420"
    INDEX 01 07:24:35
  TRACK 331 AUDIO
    TITLE "0:"
    INDEX 01 07:25:58
  TRACK 332 AUDIO
    TITLE "48:cjc135_7421"
    INDEX 01 07:26:32
  TRACK 333 AUDIO
    TITLE "0:"
    INDEX 01 07:29:28
  TRACK 334 AUDIO
    TITLE "49:cjc135_7422"
    INDEX 01 07:29:54
  TRACK 335 AUDIO
    TITLE "0:"
    INDEX 01 07:32:52
  TRACK 336 AUDIO
    TITLE "50:cjc135_7423"
    INDEX 01 07:33:05
  TRACK 337 AUDIO
    TITLE "0:"
    INDEX 01 07:36:05
  TRACK 338 AUDIO
    TITLE "47:cjc135_7424"
    INDEX 01 07:37:04
  TRACK 339 AUDIO
    TITLE "0:"
    INDEX 01 07:38:31
  TRACK 340 AUDIO
    TITLE "48:cjc135_7425"
    INDEX 01 07:39:07
  TRACK 341 AUDIO
    TITLE "0:"
    INDEX 01 07:41:65
  TRACK 342 AUDIO
    TITLE "49:cjc135_7426"
    INDEX 01 07:42:17
  TRACK 343 AUDIO
    TITLE "0:"
    INDEX 01 07:44:04
  TRACK 344 AUDIO
    TITLE "50:cjc135_7427"
    INDEX 01 07:44:30
  TRACK 345 AUDIO
    TITLE "0:"
    INDEX 01 07:46:17
  TRACK 346 AUDIO
    TITLE "47:cjc135_7428"
    INDEX 01 07:47:16
  TRACK 347 AUDIO
    TITLE "0:"
    INDEX 01 07:48:53
  TRACK 348 AUDIO
    TITLE "48:cjc135_7429"
    INDEX 01 07:49:27
  TRACK 349 AUDIO
    TITLE "0:"
    INDEX 01 07:54:01
  TRACK 350 AUDIO
    TITLE "49:cjc135_7430"
    INDEX 01 07:54:26
  TRACK 351 AUDIO
    TITLE "0:"
    INDEX 01 07:57:44
  TRACK 352 AUDIO
    TITLE "50:cjc135_7431"
    INDEX 01 07:57:70
  TRACK 353 AUDIO
    TITLE "0:"
    INDEX 01 08:01:13
  TRACK 354 AUDIO
    TITLE "47:cjc135_7432"
    INDEX 01 08:02:12
  TRACK 355 AUDIO
    TITLE "0:"
    INDEX 01 08:03:41
  TRACK 356 AUDIO
    TITLE "48:cjc135_7433"
    INDEX 01 08:04:17
  TRACK 357 AUDIO
    TITLE "0:"
    INDEX 01 08:06:59
  TRACK 358 AUDIO
    TITLE "49:cjc135_7434"
    INDEX 01 08:07:09
  TRACK 359 AUDIO
    TITLE "0:"
    INDEX 01 08:09:44
  TRACK 360 AUDIO
    TITLE "50:cjc135_7435"
    INDEX 01 08:09:67
  TRACK 361 AUDIO
    TITLE "0:"
    INDEX 01 08:12:26
  TRACK 362 AUDIO
    TITLE "47:cjc135_7436"
    INDEX 01 08:13:26
  TRACK 363 AUDIO
    TITLE "0:"
    INDEX 01 08:14:43
  TRACK 364 AUDIO
    TITLE "48:cjc135_7437"
    INDEX 01 08:15:17
  TRACK 365 AUDIO
    TITLE "0:"
    INDEX 01 08:16:71
  TRACK 366 AUDIO
    TITLE "49:cjc135_7438"
    INDEX 01 08:17:21
  TRACK 367 AUDIO
    TITLE "0:"
    INDEX 01 08:18:70
  TRACK 368 AUDIO
    TITLE "50:cjc135_7439"
    INDEX 01 08:19:22
  TRACK 369 AUDIO
    TITLE "0:"
    INDEX 01 08:20:73
  TRACK 370 AUDIO
    TITLE "47:cjc135_7440"
    INDEX 01 08:21:72
  TRACK 371 AUDIO
    TITLE "0:"
    INDEX 01 08:23:44
  TRACK 372 AUDIO
    TITLE "48:cjc135_7441"
    INDEX 01 08:24:20
  TRACK 373 AUDIO
    TITLE "0:"
    INDEX 01 08:27:43
  TRACK 374 AUDIO
    TITLE "49:cjc135_7442"
    INDEX 01 08:27:69
  TRACK 375 AUDIO
    TITLE "0:"
    INDEX 01 08:30:20
  TRACK 376 AUDIO
    TITLE "50:cjc135_7443"
    INDEX 01 08:30:44
  TRACK 377 AUDIO
    TITLE "0:"
    INDEX 01 08:32:70
  TRACK 378 AUDIO
    TITLE "47:cjc135_7444"
    INDEX 01 08:33:71
  TRACK 379 AUDIO
    TITLE "0:"
    INDEX 01 08:35:72
  TRACK 380 AUDIO
    TITLE "48:cjc135_7445"
    INDEX 01 08:36:44
  TRACK 381 AUDIO
    TITLE "0:"
    INDEX 01 08:39:60
  TRACK 382 AUDIO
    TITLE "49:cjc135_7446"
    INDEX 01 08:40:09
  TRACK 383 AUDIO
    TITLE "0:"
    INDEX 01 08:42:65
  TRACK 384 AUDIO
    TITLE "50:cjc135_7447"
    INDEX 01 08:43:17
  TRACK 385 AUDIO
    TITLE "0:"
    INDEX 01 08:45:73
  TRACK 386 AUDIO
    TITLE "47:cjc135_7448"
    INDEX 01 08:46:74
  TRACK 387 AUDIO
    TITLE "0:"
    INDEX 01 08:48:20
  TRACK 388 AUDIO
    TITLE "48:cjc135_7449"
    INDEX 01 08:48:73
  TRACK 389 AUDIO
    TITLE "0:"
    INDEX 01 08:51:22
  TRACK 390 AUDIO
    TITLE "49:cjc135_7450"
    INDEX 01 08:51:48
  TRACK 391 AUDIO
    TITLE "0:"
    INDEX 01 08:53:29
  TRACK 392 AUDIO
    TITLE "50:cjc135_7451"
    INDEX 01 08:53:55
  TRACK 393 AUDIO
    TITLE "0:"
    INDEX 01 08:55:38
  TRACK 394 AUDIO
    TITLE "47:cjc135_7452"
    INDEX 01 08:56:37
  TRACK 395 AUDIO
    TITLE "0:"
    INDEX 01 08:57:68
  TRACK 396 AUDIO
    TITLE "48:cjc135_7453"
    INDEX 01 08:58:44
  TRACK 397 AUDIO
    TITLE "0:"
    INDEX 01 09:00:74
  TRACK 398 AUDIO
    TITLE "49:cjc135_7454"
    INDEX 01 09:01:25
  TRACK 399 AUDIO
    TITLE "0:"
    INDEX 01 09:03:04
  TRACK 400 AUDIO
    TITLE "50:cjc135_7455"
    INDEX 01 09:03:29
  TRACK 401 AUDIO
    TITLE "0:"
    INDEX 01 09:05:11
  TRACK 402 AUDIO
    TITLE "47:cjc135_7456"
    INDEX 01 09:06:10
  TRACK 403 AUDIO
    TITLE "0:"
    INDEX 01 09:07:23
  TRACK 404 AUDIO
    TITLE "48:cjc135_7457"
    INDEX 01 09:07:72
  TRACK 405 AUDIO
    TITLE "0:"
    INDEX 01 09:10:53
  TRACK 406 AUDIO
    TITLE "49:cjc135_7458"
    INDEX 01 09:11:05
  TRACK 407 AUDIO
    TITLE "0:"
    INDEX 01 09:12:50
  TRACK 408 AUDIO
    TITLE "50:cjc135_7459"
    INDEX 01 09:13:04
  TRACK 409 AUDIO
    TITLE "0:"
    INDEX 01 09:14:51
  TRACK 410 AUDIO
    TITLE "47:cjc135_7460"
    INDEX 01 09:15:54
  TRACK 411 AUDIO
    TITLE "0:"
    INDEX 01 09:17:28
  TRACK 412 AUDIO
    TITLE "48:cjc135_7461"
    INDEX 01 09:18:02
  TRACK 413 AUDIO
    TITLE "0:"
    INDEX 01 09:21:20
  TRACK 414 AUDIO
    TITLE "49:cjc135_7462"
    INDEX 01 09:21:45
  TRACK 415 AUDIO
    TITLE "0:"
    INDEX 01 09:23:44
  TRACK 416 AUDIO
    TITLE "50:cjc135_7463"
    INDEX 01 09:23:67
  TRACK 417 AUDIO
    TITLE "0:"
    INDEX 01 09:25:66
  TRACK 418 AUDIO
    TITLE "47:cjc135_7464"
    INDEX 01 09:26:66
  TRACK 419 AUDIO
    TITLE "0:"
    INDEX 01 09:28:20
  TRACK 420 AUDIO
    TITLE "48:cjc135_7465"
    INDEX 01 09:28:71
  TRACK 421 AUDIO
    TITLE "0:"
    INDEX 01 09:32:04
  TRACK 422 AUDIO
    TITLE "49:cjc135_7466"
    INDEX 01 09:32:27
  TRACK 423 AUDIO
    TITLE "0:"
    INDEX 01 09:34:50
  TRACK 424 AUDIO
    TITLE "50:cjc135_7467"
    INDEX 01 09:35:00
  TRACK 425 AUDIO
    TITLE "0:"
    INDEX 01 09:37:22
  TRACK 426 AUDIO
    TITLE "47:cjc135_7468"
    INDEX 01 09:38:22
  TRACK 427 AUDIO
    TITLE "0:"
    INDEX 01 09:39:43
  TRACK 428 AUDIO
    TITLE "48:cjc135_7469"
    INDEX 01 09:40:21
  TRACK 429 AUDIO
    TITLE "0:"
    INDEX 01 09:42:02
  TRACK 430 AUDIO
    TITLE "49:cjc135_7470"
    INDEX 01 09:42:28
  TRACK 431 AUDIO
    TITLE "0:"
    INDEX 01 09:43:68
  TRACK 432 AUDIO
    TITLE "50:cjc135_7471"
    INDEX 01 09:44:17
  TRACK 433 AUDIO
    TITLE "0:"
    INDEX 01 09:45:57
  TRACK 434 AUDIO
    TITLE "47:cjc135_7472"
    INDEX 01 09:46:57
  TRACK 435 AUDIO
    TITLE "0:"
    INDEX 01 09:48:01
  TRACK 436 AUDIO
    TITLE "48:cjc135_7473"
    INDEX 01 09:48:50
  TRACK 437 AUDIO
    TITLE "0:"
    INDEX 01 09:52:26
  TRACK 438 AUDIO
    TITLE "49:cjc135_7474"
    INDEX 01 09:52:49
  TRACK 439 AUDIO
    TITLE "0:"
    INDEX 01 09:54:46
  TRACK 440 AUDIO
    TITLE "50:cjc135_7475"
    INDEX 01 09:54:72
  TRACK 441 AUDIO
    TITLE "0:"
    INDEX 01 09:56:69
  TRACK 442 AUDIO
    TITLE "47:cjc135_7476"
    INDEX 01 09:57:70
  TRACK 443 AUDIO
    TITLE "0:"
    INDEX 01 09:59:08
  TRACK 444 AUDIO
    TITLE "48:cjc135_7477"
    INDEX 01 09:59:61
  TRACK 445 AUDIO
    TITLE "0:"
    INDEX 01 10:01:46
  TRACK 446 AUDIO
    TITLE "49:cjc135_7478"
    INDEX 01 10:01:72
  TRACK 447 AUDIO
    TITLE "0:"
    INDEX 01 10:03:38
  TRACK 448 AUDIO
    TITLE "50:cjc135_7479"
    INDEX 01 10:03:63
  TRACK 449 AUDIO
    TITLE "0:"
    INDEX 01 10:05:29
  TRACK 450 AUDIO
    TITLE "47:cjc135_7480"
    INDEX 01 10:06:28
  TRACK 451 AUDIO
    TITLE "0:"
    INDEX 01 10:07:55
  TRACK 452 AUDIO
    TITLE "48:cjc135_7481"
    INDEX 01 10:08:33
  TRACK 453 AUDIO
    TITLE "0:"
    INDEX 01 10:11:21
  TRACK 454 AUDIO
    TITLE "49:cjc135_7482"
    INDEX 01 10:11:45
  TRACK 455 AUDIO
    TITLE "0:"
    INDEX 01 10:13:63
  TRACK 456 AUDIO
    TITLE "50:cjc135_7483"
    INDEX 01 10:14:12
  TRACK 457 AUDIO
    TITLE "0:"
    INDEX 01 10:16:30
  TRACK 458 AUDIO
    TITLE "47:cjc135_7484"
    INDEX 01 10:17:30
  TRACK 459 AUDIO
    TITLE "0:"
    INDEX 01 10:18:43
  TRACK 460 AUDIO
    TITLE "48:cjc135_7485"
    INDEX 01 10:19:19
  TRACK 461 AUDIO
    TITLE "0:"
    INDEX 01 10:22:15
  TRACK 462 AUDIO
    TITLE "49:cjc135_7486"
    INDEX 01 10:22:39
  TRACK 463 AUDIO
    TITLE "0:"
    INDEX 01 10:24:22
  TRACK 464 AUDIO
    TITLE "50:cjc135_7487"
    INDEX 01 10:24:48
  TRACK 465 AUDIO
    TITLE "0:"
    INDEX 01 10:26:31
  TRACK 466 AUDIO
    TITLE "47:cjc135_7488"
    INDEX 01 10:27:30
  TRACK 467 AUDIO
    TITLE "0:"
    INDEX 01 10:28:41
  TRACK 468 AUDIO
    TITLE "48:cjc135_7489"
    INDEX 01 10:29:15
  TRACK 469 AUDIO
    TITLE "0:"
    INDEX 01 10:31:42
  TRACK 470 AUDIO
    TITLE "49:cjc135_7490"
    INDEX 01 10:31:67
  TRACK 471 AUDIO
    TITLE "0:"
    INDEX 01 10:33:56
  TRACK 472 AUDIO
    TITLE "50:cjc135_7491"
    INDEX 01 10:34:05
  TRACK 473 AUDIO
    TITLE "0:"
    INDEX 01 10:35:67
  TRACK 474 AUDIO
    TITLE "47:cjc135_7492"
    INDEX 01 10:36:66
  TRACK 475 AUDIO
    TITLE "0:"
    INDEX 01 10:39:71
  TRACK 476 AUDIO
    TITLE "48:cjc135_7493"
    INDEX 01 10:40:45
  TRACK 477 AUDIO
    TITLE "0:"
    INDEX 01 10:42:65
  TRACK 478 AUDIO
    TITLE "49:cjc135_7494"
    INDEX 01 10:43:15
  TRACK 479 AUDIO
    TITLE "0:"
    INDEX 01 10:47:05
  TRACK 480 AUDIO
    TITLE "50:cjc135_7495"
    INDEX 01 10:47:29
  TRACK 481 AUDIO
    TITLE "0:"
    INDEX 01 10:51:17
  TRACK 482 AUDIO
    TITLE "47:cjc135_7496"
    INDEX 01 10:52:20
  TRACK 483 AUDIO
    TITLE "0:"
    INDEX 01 10:53:59
  TRACK 484 AUDIO
    TITLE "48:cjc135_7497"
    INDEX 01 10:54:35
  TRACK 485 AUDIO
    TITLE "0:"
    INDEX 01 10:56:26
  TRACK 486 AUDIO
    TITLE "49:cjc135_7498"
    INDEX 01 10:56:51
  TRACK 487 AUDIO
    TITLE "0:"
    INDEX 01 10:58:54
  TRACK 488 AUDIO
    TITLE "50:cjc135_7499"
    INDEX 01 10:59:05
  TRACK 489 AUDIO
    TITLE "0:"
    INDEX 01 11:01:08
  TRACK 490 AUDIO
    TITLE "47:cjc135_7500"
    INDEX 01 11:02:07
  TRACK 491 AUDIO
    TITLE "0:"
    INDEX 01 11:03:71
  TRACK 492 AUDIO
    TITLE "48:cjc135_7501"
    INDEX 01 11:04:45
  TRACK 493 AUDIO
    TITLE "0:"
    INDEX 01 11:07:34
  TRACK 494 AUDIO
    TITLE "49:cjc135_7502"
    INDEX 01 11:07:57
  TRACK 495 AUDIO
    TITLE "0:"
    INDEX 01 11:10:05
  TRACK 496 AUDIO
    TITLE "50:cjc135_7503"
    INDEX 01 11:10:28
  TRACK 497 AUDIO
    TITLE "0:"
    INDEX 01 11:12:48
  TRACK 498 AUDIO
    TITLE "47:cjc135_7504"
    INDEX 01 11:13:48
  TRACK 499 AUDIO
    TITLE "0:"
    INDEX 01 11:14:67
  TRACK 500 AUDIO
    TITLE "48:cjc135_7505"
    INDEX 01 11:15:45
  TRACK 501 AUDIO
    TITLE "0:"
    INDEX 01 11:17:57
  TRACK 502 AUDIO
    TITLE "49:cjc135_7506"
    INDEX 01 11:18:10
  TRACK 503 AUDIO
    TITLE "0:"
    INDEX 01 11:20:09
  TRACK 504 AUDIO
    TITLE "50:cjc135_7507"
    INDEX 01 11:20:32
  TRACK 505 AUDIO
    TITLE "0:"
    INDEX 01 11:22:31
  TRACK 506 AUDIO
    TITLE "47:cjc135_7508"
    INDEX 01 11:23:29
  TRACK 507 AUDIO
    TITLE "0:"
    INDEX 01 11:25:04
  TRACK 508 AUDIO
    TITLE "48:cjc135_7509"
    INDEX 01 11:25:57
  TRACK 509 AUDIO
    TITLE "0:"
    INDEX 01 11:28:65
  TRACK 510 AUDIO
    TITLE "49:cjc135_7510"
    INDEX 01 11:29:16
  TRACK 511 AUDIO
    TITLE "0:"
    INDEX 01 11:31:63
  TRACK 512 AUDIO
    TITLE "50:cjc135_7511"
    INDEX 01 11:32:12
  TRACK 513 AUDIO
    TITLE "0:"
    INDEX 01 11:34:62
  TRACK 514 AUDIO
    TITLE "47:cjc135_7512"
    INDEX 01 11:35:59
  TRACK 515 AUDIO
    TITLE "0:"
    INDEX 01 11:37:03
  TRACK 516 AUDIO
    TITLE "48:cjc135_7513"
    INDEX 01 11:37:54
  TRACK 517 AUDIO
    TITLE "0:"
    INDEX 01 11:40:08
  TRACK 518 AUDIO
    TITLE "49:cjc135_7514"
    INDEX 01 11:40:33
  TRACK 519 AUDIO
    TITLE "0:"
    INDEX 01 11:42:44
  TRACK 520 AUDIO
    TITLE "50:cjc135_7515"
    INDEX 01 11:42:67
  TRACK 521 AUDIO
    TITLE "0:"
    INDEX 01 11:45:03
  TRACK 522 AUDIO
    TITLE "47:cjc135_7516"
    INDEX 01 11:46:02
  TRACK 523 AUDIO
    TITLE "0:"
    INDEX 01 11:47:35
  TRACK 524 AUDIO
    TITLE "48:cjc135_7517"
    INDEX 01 11:48:09
  TRACK 525 AUDIO
    TITLE "0:"
    INDEX 01 11:50:43
  TRACK 526 AUDIO
    TITLE "49:cjc135_7518"
    INDEX 01 11:50:67
  TRACK 527 AUDIO
    TITLE "0:"
    INDEX 01 11:53:14
  TRACK 528 AUDIO
    TITLE "50:cjc135_7519"
    INDEX 01 11:53:38
  TRACK 529 AUDIO
    TITLE "0:"
    INDEX 01 11:55:56
  TRACK 530 AUDIO
    TITLE "47:cjc135_7520"
    INDEX 01 11:56:58
  TRACK 531 AUDIO
    TITLE "0:"
    INDEX 01 11:58:09
  TRACK 532 AUDIO
    TITLE "48:cjc135_7521"
    INDEX 01 11:58:56
  TRACK 533 AUDIO
    TITLE "0:"
    INDEX 01 12:01:55
  TRACK 534 AUDIO
    TITLE "49:cjc135_7522"
    INDEX 01 12:02:01
  TRACK 535 AUDIO
    TITLE "0:"
    INDEX 01 12:04:67
  TRACK 536 AUDIO
    TITLE "50:cjc135_7523"
    INDEX 01 12:05:15
  TRACK 537 AUDIO
    TITLE "0:"
    INDEX 01 12:08:02
  TRACK 538 AUDIO
    TITLE "47:cjc135_7524"
    INDEX 01 12:09:01
  TRACK 539 AUDIO
    TITLE "0:"
    INDEX 01 12:10:32
  TRACK 540 AUDIO
    TITLE "48:cjc135_7525"
    INDEX 01 12:11:06
  TRACK 541 AUDIO
    TITLE "0:"
    INDEX 01 12:13:40
  TRACK 542 AUDIO
    TITLE "49:cjc135_7526"
    INDEX 01 12:13:64
  TRACK 543 AUDIO
    TITLE "0:"
    INDEX 01 12:16:09
  TRACK 544 AUDIO
    TITLE "50:cjc135_7527"
    INDEX 01 12:16:33
  TRACK 545 AUDIO
    TITLE "0:"
    INDEX 01 12:18:51
  TRACK 546 AUDIO
    TITLE "47:cjc135_7528"
    INDEX 01 12:19:49
  TRACK 547 AUDIO
    TITLE "0:"
    INDEX 01 12:20:68
  TRACK 548 AUDIO
    TITLE "48:cjc135_7529"
    INDEX 01 12:21:40
  TRACK 549 AUDIO
    TITLE "0:"
    INDEX 01 12:23:29
  TRACK 550 AUDIO
    TITLE "49:cjc135_7530"
    INDEX 01 12:23:52
  TRACK 551 AUDIO
    TITLE "0:"
    INDEX 01 12:25:38
  TRACK 552 AUDIO
    TITLE "50:cjc135_7531"
    INDEX 01 12:25:63
  TRACK 553 AUDIO
    TITLE "0:"
    INDEX 01 12:27:46
  TRACK 554 AUDIO
    TITLE "47:cjc135_7532"
    INDEX 01 12:28:48
  TRACK 555 AUDIO
    TITLE "0:"
    INDEX 01 12:29:63
  TRACK 556 AUDIO
    TITLE "48:cjc135_7533"
    INDEX 01 12:30:37
  TRACK 557 AUDIO
    TITLE "0:"
    INDEX 01 12:32:53
  TRACK 558 AUDIO
    TITLE "49:cjc135_7534"
    INDEX 01 12:33:02
  TRACK 559 AUDIO
    TITLE "0:"
    INDEX 01 12:35:22
  TRACK 560 AUDIO
    TITLE "50:cjc135_7535"
    INDEX 01 12:35:48
  TRACK 561 AUDIO
    TITLE "0:"
    INDEX 01 12:37:68
  TRACK 562 AUDIO
    TITLE "47:cjc135_7536"
    INDEX 01 12:38:68
  TRACK 563 AUDIO
    TITLE "0:"
    INDEX 01 12:39:67
  TRACK 564 AUDIO
    TITLE "48:cjc135_7537"
    INDEX 01 12:40:51
  TRACK 565 AUDIO
    TITLE "0:"
    INDEX 01 12:42:32
  TRACK 566 AUDIO
    TITLE "49:cjc135_7538"
    INDEX 01 12:42:60
  TRACK 567 AUDIO
    TITLE "0:"
    INDEX 01 12:44:13
  TRACK 568 AUDIO
    TITLE "50:cjc135_7539"
    INDEX 01 12:44:37
  TRACK 569 AUDIO
    TITLE "0:"
    INDEX 01 12:45:66
  TRACK 570 AUDIO
    TITLE "47:cjc135_7540"
    INDEX 01 12:46:65
  TRACK 571 AUDIO
    TITLE "0:"
    INDEX 01 12:48:03
  TRACK 572 AUDIO
    TITLE "48:cjc135_7541"
    INDEX 01 12:48:52
  TRACK 573 AUDIO
    TITLE "0:"
    INDEX 01 12:50:71
  TRACK 574 AUDIO
    TITLE "49:cjc135_7542"
    INDEX 01 12:51:21
  TRACK 575 AUDIO
    TITLE "0:"
    INDEX 01 12:53:10
  TRACK 576 AUDIO
    TITLE "50:cjc135_7543"
    INDEX 01 12:53:34
  TRACK 577 AUDIO
    TITLE "0:"
    INDEX 01 12:55:23
  TRACK 578 AUDIO
    TITLE "47:cjc135_7544"
    INDEX 01 12:56:32
  TRACK 579 AUDIO
    TITLE "0:"
    INDEX 01 12:57:53
  TRACK 580 AUDIO
    TITLE "48:cjc135_7545"
    INDEX 01 12:58:27
  TRACK 581 AUDIO
    TITLE "0:"
    INDEX 01 13:00:32
  TRACK 582 AUDIO
    TITLE "49:cjc135_7546"
    INDEX 01 13:00:58
  TRACK 583 AUDIO
    TITLE "0:"
    INDEX 01 13:02:23
  TRACK 584 AUDIO
    TITLE "50:cjc135_7547"
    INDEX 01 13:02:51
  TRACK 585 AUDIO
    TITLE "0:"
    INDEX 01 13:04:16
  TRACK 586 AUDIO
    TITLE "47:cjc135_7548"
    INDEX 01 13:05:18
  TRACK 587 AUDIO
    TITLE "0:"
    INDEX 01 13:06:29
  TRACK 588 AUDIO
    TITLE "48:cjc135_7549"
    INDEX 01 13:07:03
  TRACK 589 AUDIO
    TITLE "0:"
    INDEX 01 13:08:49
  TRACK 590 AUDIO
    TITLE "49:cjc135_7550"
    INDEX 01 13:09:02
  TRACK 591 AUDIO
    TITLE "0:"
    INDEX 01 13:10:62
  TRACK 592 AUDIO
    TITLE "50:cjc135_7551"
    INDEX 01 13:11:12
  TRACK 593 AUDIO
    TITLE "0:"
    INDEX 01 13:12:72
  TRACK 594 AUDIO
    TITLE "47:cjc135_7552"
    INDEX 01 13:13:72
  TRACK 595 AUDIO
    TITLE "0:"
    INDEX 01 13:15:18
  TRACK 596 AUDIO
    TITLE "48:cjc135_7553"
    INDEX 01 13:15:67
  TRACK 597 AUDIO
    TITLE "0:"
    INDEX 01 13:18:44
  TRACK 598 AUDIO
    TITLE "49:cjc135_7554"
    INDEX 01 13:18:69
  TRACK 599 AUDIO
    TITLE "0:"
    INDEX 01 13:20:64
  TRACK 600 AUDIO
    TITLE "50:cjc135_7555"
    INDEX 01 13:21:19
  TRACK 601 AUDIO
    TITLE "0:"
    INDEX 01 13:23:17
  TRACK 602 AUDIO
    TITLE "47:cjc135_7556"
    INDEX 01 13:24:17
  TRACK 603 AUDIO
    TITLE "0:"
    INDEX 01 13:25:32
  TRACK 604 AUDIO
    TITLE "48:cjc135_7557"
    INDEX 01 13:26:06
  TRACK 605 AUDIO
    TITLE "0:"
    INDEX 01 13:29:20
  TRACK 606 AUDIO
    TITLE "49:cjc135_7558"
    INDEX 01 13:29:49
  TRACK 607 AUDIO
    TITLE "0:"
    INDEX 01 13:31:58
  TRACK 608 AUDIO
    TITLE "50:cjc135_7559"
    INDEX 01 13:32:07
  TRACK 609 AUDIO
    TITLE "0:"
    INDEX 01 13:34:17
  TRACK 610 AUDIO
    TITLE "47:cjc135_7560"
    INDEX 01 13:35:17
  TRACK 611 AUDIO
    TITLE "0:"
    INDEX 01 13:36:30
  TRACK 612 AUDIO
    TITLE "48:cjc135_7561"
    INDEX 01 13:37:04
  TRACK 613 AUDIO
    TITLE "0:"
    INDEX 01 13:39:28
  TRACK 614 AUDIO
    TITLE "49:cjc135_7562"
    INDEX 01 13:39:54
  TRACK 615 AUDIO
    TITLE "0:"
    INDEX 01 13:41:39
  TRACK 616 AUDIO
    TITLE "50:cjc135_7563"
    INDEX 01 13:41:64
  TRACK 617 AUDIO
    TITLE "0:"
    INDEX 01 13:43:50
  TRACK 618 AUDIO
    TITLE "47:cjc135_7564"
    INDEX 01 13:44:49
  TRACK 619 AUDIO
    TITLE "0:"
    INDEX 01 13:45:58
  TRACK 620 AUDIO
    TITLE "48:cjc135_7565"
    INDEX 01 13:46:34
  TRACK 621 AUDIO
    TITLE "0:"
    INDEX 01 13:48:13
  TRACK 622 AUDIO
    TITLE "49:cjc135_7566"
    INDEX 01 13:48:39
  TRACK 623 AUDIO
    TITLE "0:"
    INDEX 01 13:50:06
  TRACK 624 AUDIO
    TITLE "50:cjc135_7567"
    INDEX 01 13:50:32
  TRACK 625 AUDIO
    TITLE "0:"
    INDEX 01 13:52:00
  TRACK 626 AUDIO
    TITLE "47:cjc135_7568"
    INDEX 01 13:52:74
  TRACK 627 AUDIO
    TITLE "0:"
    INDEX 01 13:54:24
  TRACK 628 AUDIO
    TITLE "48:cjc135_7569"
    INDEX 01 13:54:73
  TRACK 629 AUDIO
    TITLE "0:"
    INDEX 01 13:56:72
  TRACK 630 AUDIO
    TITLE "49:cjc135_7570"
    INDEX 01 13:57:22
  TRACK 631 AUDIO
    TITLE "0:"
    INDEX 01 13:59:02
  TRACK 632 AUDIO
    TITLE "50:cjc135_7571"
    INDEX 01 13:59:27
  TRACK 633 AUDIO
    TITLE "0:"
    INDEX 01 14:01:06
  TRACK 634 AUDIO
    TITLE "47:cjc135_7572"
    INDEX 01 14:02:08
  TRACK 635 AUDIO
    TITLE "0:"
    INDEX 01 14:03:33
  TRACK 636 AUDIO
    TITLE "48:cjc135_7573"
    INDEX 01 14:04:07
  TRACK 637 AUDIO
    TITLE "0:"
    INDEX 01 14:05:69
  TRACK 638 AUDIO
    TITLE "49:cjc135_7574"
    INDEX 01 14:06:17
  TRACK 639 AUDIO
    TITLE "0:"
    INDEX 01 14:08:14
  TRACK 640 AUDIO
    TITLE "50:cjc135_7575"
    INDEX 01 14:08:38
  TRACK 641 AUDIO
    TITLE "0:"
    INDEX 01 14:10:33
  TRACK 642 AUDIO
    TITLE "47:cjc135_7576"
    INDEX 01 14:11:32
  TRACK 643 AUDIO
    TITLE "0:"
    INDEX 01 14:13:15
  TRACK 644 AUDIO
    TITLE "48:cjc135_7577"
    INDEX 01 14:13:64
  TRACK 645 AUDIO
    TITLE "0:"
    INDEX 01 14:16:37
  TRACK 646 AUDIO
    TITLE "49:cjc135_7578"
    INDEX 01 14:16:65
  TRACK 647 AUDIO
    TITLE "0:"
    INDEX 01 14:19:08
  TRACK 648 AUDIO
    TITLE "50:cjc135_7579"
    INDEX 01 14:19:32
  TRACK 649 AUDIO
    TITLE "0:"
    INDEX 01 14:21:50
  TRACK 650 AUDIO
    TITLE "47:cjc135_7580"
    INDEX 01 14:22:50
  TRACK 651 AUDIO
    TITLE "0:"
    INDEX 01 14:24:27
  TRACK 652 AUDIO
    TITLE "48:cjc135_7581"
    INDEX 01 14:25:03
  TRACK 653 AUDIO
    TITLE "0:"
    INDEX 01 14:27:49
  TRACK 654 AUDIO
    TITLE "49:cjc135_7582"
    INDEX 01 14:27:72
  TRACK 655 AUDIO
    TITLE "0:"
    INDEX 01 14:29:59
  TRACK 656 AUDIO
    TITLE "50:cjc135_7583"
    INDEX 01 14:30:10
  TRACK 657 AUDIO
    TITLE "0:"
    INDEX 01 14:31:70
  TRACK 658 AUDIO
    TITLE "47:cjc135_7584"
    INDEX 01 14:32:72
  TRACK 659 AUDIO
    TITLE "0:"
    INDEX 01 14:34:19
  TRACK 660 AUDIO
    TITLE "48:cjc135_7585"
    INDEX 01 14:34:68
  TRACK 661 AUDIO
    TITLE "0:"
    INDEX 01 14:38:11
  TRACK 662 AUDIO
    TITLE "49:cjc135_7586"
    INDEX 01 14:38:35
  TRACK 663 AUDIO
    TITLE "0:"
    INDEX 01 14:41:10
  TRACK 664 AUDIO
    TITLE "50:cjc135_7587"
    INDEX 01 14:41:35
  TRACK 665 AUDIO
    TITLE "0:"
    INDEX 01 14:44:08
  TRACK 666 AUDIO
    TITLE "47:cjc135_7588"
    INDEX 01 14:45:09
  TRACK 667 AUDIO
    TITLE "0:"
    INDEX 01 14:46:54
  TRACK 668 AUDIO
    TITLE "48:cjc135_7589"
    INDEX 01 14:47:30
  TRACK 669 AUDIO
    TITLE "0:"
    INDEX 01 14:49:62
  TRACK 670 AUDIO
    TITLE "49:cjc135_7590"
    INDEX 01 14:50:15
  TRACK 671 AUDIO
    TITLE "0:"
    INDEX 01 14:52:72
  TRACK 672 AUDIO
    TITLE "50:cjc135_7591"
    INDEX 01 14:53:23
  TRACK 673 AUDIO
    TITLE "0:"
    INDEX 01 14:56:05
  TRACK 674 AUDIO
    TITLE "47:cjc135_7592"
    INDEX 01 14:57:05
  TRACK 675 AUDIO
    TITLE "0:"
    INDEX 01 14:58:32
  TRACK 676 AUDIO
    TITLE "48:cjc135_7593"
    INDEX 01 14:59:08
  TRACK 677 AUDIO
    TITLE "0:"
    INDEX 01 15:01:44
  TRACK 678 AUDIO
    TITLE "49:cjc135_7594"
    INDEX 01 15:01:63
  TRACK 679 AUDIO
    TITLE "0:"
    INDEX 01 15:03:37
  TRACK 680 AUDIO
    TITLE "50:cjc135_7595"
    INDEX 01 15:03:56
  TRACK 681 AUDIO
    TITLE "0:"
    INDEX 01 15:05:28
  TRACK 682 AUDIO
    TITLE "47:cjc135_7596"
    INDEX 01 15:06:27
  TRACK 683 AUDIO
    TITLE "0:"
    INDEX 01 15:07:50
  TRACK 684 AUDIO
    TITLE "48:cjc135_7597"
    INDEX 01 15:08:24
  TRACK 685 AUDIO
    TITLE "0:"
    INDEX 01 15:11:50
  TRACK 686 AUDIO
    TITLE "49:cjc135_7598"
    INDEX 01 15:12:00
  TRACK 687 AUDIO
    TITLE "0:"
    INDEX 01 15:14:54
  TRACK 688 AUDIO
    TITLE "50:cjc135_7599"
    INDEX 01 15:15:05
  TRACK 689 AUDIO
    TITLE "0:"
    INDEX 01 15:17:60
  TRACK 690 AUDIO
    TITLE "47:cjc135_7600"
    INDEX 01 15:18:60
  TRACK 691 AUDIO
    TITLE "0:"
    INDEX 01 15:20:02
  TRACK 692 AUDIO
    TITLE "48:cjc135_7601"
    INDEX 01 15:20:53
  TRACK 693 AUDIO
    TITLE "0:"
    INDEX 01 15:22:38
  TRACK 694 AUDIO
    TITLE "49:cjc135_7602"
    INDEX 01 15:22:66
  TRACK 695 AUDIO
    TITLE "0:"
    INDEX 01 15:24:45
  TRACK 696 AUDIO
    TITLE "50:cjc135_7603"
    INDEX 01 15:24:70
  TRACK 697 AUDIO
    TITLE "0:"
    INDEX 01 15:26:48
  TRACK 698 AUDIO
    TITLE "47:cjc135_7604"
    INDEX 01 15:27:49
  TRACK 699 AUDIO
    TITLE "0:"
    INDEX 01 15:28:62
  TRACK 700 AUDIO
    TITLE "48:cjc135_7605"
    INDEX 01 15:29:38
  TRACK 701 AUDIO
    TITLE "0:"
    INDEX 01 15:31:21
  TRACK 702 AUDIO
    TITLE "49:cjc135_7606"
    INDEX 01 15:31:47
  TRACK 703 AUDIO
    TITLE "0:"
    INDEX 01 15:33:20
  TRACK 704 AUDIO
    TITLE "50:cjc135_7607"
    INDEX 01 15:33:44
  TRACK 705 AUDIO
    TITLE "0:"
    INDEX 01 15:35:17
  TRACK 706 AUDIO
    TITLE "47:cjc135_7608"
    INDEX 01 15:36:17
  TRACK 707 AUDIO
    TITLE "0:"
    INDEX 01 15:37:40
  TRACK 708 AUDIO
    TITLE "48:cjc135_7609"
    INDEX 01 15:38:16
  TRACK 709 AUDIO
    TITLE "0:"
    INDEX 01 15:40:26
  TRACK 710 AUDIO
    TITLE "49:cjc135_7610"
    INDEX 01 15:40:52
  TRACK 711 AUDIO
    TITLE "0:"
    INDEX 01 15:42:41
  TRACK 712 AUDIO
    TITLE "50:cjc135_7611"
    INDEX 01 15:42:66
  TRACK 713 AUDIO
    TITLE "0:"
    INDEX 01 15:44:55
  TRACK 714 AUDIO
    TITLE "47:cjc135_7612"
    INDEX 01 15:45:57
  TRACK 715 AUDIO
    TITLE "0:"
    INDEX 01 15:47:01
  TRACK 716 AUDIO
    TITLE "48:cjc135_7613"
    INDEX 01 15:47:50
  TRACK 717 AUDIO
    TITLE "0:"
    INDEX 01 15:49:13
  TRACK 718 AUDIO
    TITLE "49:cjc135_7614"
    INDEX 01 15:49:39
  TRACK 719 AUDIO
    TITLE "0:"
    INDEX 01 15:51:12
  TRACK 720 AUDIO
    TITLE "50:cjc135_7615"
    INDEX 01 15:51:38
  TRACK 721 AUDIO
    TITLE "0:"
    INDEX 01 15:53:09
  TRACK 722 AUDIO
    TITLE "47:cjc135_7616"
    INDEX 01 15:54:11
  TRACK 723 AUDIO
    TITLE "0:"
    INDEX 01 15:55:32
  TRACK 724 AUDIO
    TITLE "48:cjc135_7617"
    INDEX 01 15:56:06
  TRACK 725 AUDIO
    TITLE "0:"
    INDEX 01 15:58:36
  TRACK 726 AUDIO
    TITLE "49:cjc135_7618"
    INDEX 01 15:58:57
  TRACK 727 AUDIO
    TITLE "0:"
    INDEX 01 16:00:43
  TRACK 728 AUDIO
    TITLE "50:cjc135_7619"
    INDEX 01 16:00:66
  TRACK 729 AUDIO
    TITLE "0:"
    INDEX 01 16:02:53
  TRACK 730 AUDIO
    TITLE "47:cjc135_7620"
    INDEX 01 16:03:55
  TRACK 731 AUDIO
    TITLE "0:"
    INDEX 01 16:05:59
  TRACK 732 AUDIO
    TITLE "48:cjc135_7621"
    INDEX 01 16:06:37
  TRACK 733 AUDIO
    TITLE "0:"
    INDEX 01 16:10:18
  TRACK 734 AUDIO
    TITLE "49:cjc135_7622"
    INDEX 01 16:10:39
  TRACK 735 AUDIO
    TITLE "0:"
    INDEX 01 16:13:45
  TRACK 736 AUDIO
    TITLE "50:cjc135_7623"
    INDEX 01 16:13:69
  TRACK 737 AUDIO
    TITLE "0:"
    INDEX 01 16:17:00
  TRACK 738 AUDIO
    TITLE "47:cjc135_7624"
    INDEX 01 16:17:72
  TRACK 739 AUDIO
    TITLE "0:"
    INDEX 01 16:19:69
  TRACK 740 AUDIO
    TITLE "48:cjc135_7625"
    INDEX 01 16:20:45
  TRACK 741 AUDIO
    TITLE "0:"
    INDEX 01 16:24:55
  TRACK 742 AUDIO
    TITLE "49:cjc135_7626"
    INDEX 01 16:25:05
  TRACK 743 AUDIO
    TITLE "0:"
    INDEX 01 16:27:73
  TRACK 744 AUDIO
    TITLE "50:cjc135_7627"
    INDEX 01 16:28:21
  TRACK 745 AUDIO
    TITLE "0:"
    INDEX 01 16:31:16
  TRACK 746 AUDIO
    TITLE "47:cjc135_7628"
    INDEX 01 16:32:15
  TRACK 747 AUDIO
    TITLE "0:"
    INDEX 01 16:33:15
  TRACK 748 AUDIO
    TITLE "48:cjc135_7629"
    INDEX 01 16:33:66
  TRACK 749 AUDIO
    TITLE "0:"
    INDEX 01 16:36:23
  TRACK 750 AUDIO
    TITLE "49:cjc135_7630"
    INDEX 01 16:36:46
  TRACK 751 AUDIO
    TITLE "0:"
    INDEX 01 16:38:53
  TRACK 752 AUDIO
    TITLE "50:cjc135_7631"
    INDEX 01 16:39:00
  TRACK 753 AUDIO
    TITLE "0:"
    INDEX 01 16:41:08
  TRACK 754 AUDIO
    TITLE "47:cjc135_7632"
    INDEX 01 16:42:08
  TRACK 755 AUDIO
    TITLE "0:"
    INDEX 01 16:43:35
  TRACK 756 AUDIO
    TITLE "48:cjc135_7633"
    INDEX 01 16:44:11
  TRACK 757 AUDIO
    TITLE "0:"
    INDEX 01 16:47:23
  TRACK 758 AUDIO
    TITLE "49:cjc135_7634"
    INDEX 01 16:47:44
  TRACK 759 AUDIO
    TITLE "0:"
    INDEX 01 16:49:33
  TRACK 760 AUDIO
    TITLE "50:cjc135_7635"
    INDEX 01 16:49:57
  TRACK 761 AUDIO
    TITLE "0:"
    INDEX 01 16:51:46
  TRACK 762 AUDIO
    TITLE "47:cjc135_7636"
    INDEX 01 16:52:47
  TRACK 763 AUDIO
    TITLE "0:"
    INDEX 01 16:54:03
  TRACK 764 AUDIO
    TITLE "48:cjc135_7637"
    INDEX 01 16:54:52
  TRACK 765 AUDIO
    TITLE "0:"
    INDEX 01 16:56:63
  TRACK 766 AUDIO
    TITLE "49:cjc135_7638"
    INDEX 01 16:57:15
  TRACK 767 AUDIO
    TITLE "0:"
    INDEX 01 16:58:66
  TRACK 768 AUDIO
    TITLE "50:cjc135_7639"
    INDEX 01 16:59:14
  TRACK 769 AUDIO
    TITLE "0:"
    INDEX 01 17:00:66
  TRACK 770 AUDIO
    TITLE "47:cjc135_7640"
    INDEX 01 17:01:64
  TRACK 771 AUDIO
    TITLE "0:"
    INDEX 01 17:03:55
  TRACK 772 AUDIO
    TITLE "48:cjc135_7641"
    INDEX 01 17:04:29
  TRACK 773 AUDIO
    TITLE "0:"
    INDEX 01 17:06:65
  TRACK 774 AUDIO
    TITLE "49:cjc135_7642"
    INDEX 01 17:07:15
  TRACK 775 AUDIO
    TITLE "0:"
    INDEX 01 17:09:71
  TRACK 776 AUDIO
    TITLE "50:cjc135_7643"
    INDEX 01 17:10:22
  TRACK 777 AUDIO
    TITLE "0:"
    INDEX 01 17:13:04
  TRACK 778 AUDIO
    TITLE "47:cjc135_7644"
    INDEX 01 17:14:06
  TRACK 779 AUDIO
    TITLE "0:"
    INDEX 01 17:15:23
  TRACK 780 AUDIO
    TITLE "48:cjc135_7645"
    INDEX 01 17:15:72
  TRACK 781 AUDIO
    TITLE "0:"
    INDEX 01 17:18:19
  TRACK 782 AUDIO
    TITLE "49:cjc135_7646"
    INDEX 01 17:18:43
  TRACK 783 AUDIO
    TITLE "0:"
    INDEX 01 17:20:63
  TRACK 784 AUDIO
    TITLE "50:cjc135_7647"
    INDEX 01 17:21:10
  TRACK 785 AUDIO
    TITLE "0:"
    INDEX 01 17:23:30
  TRACK 786 AUDIO
    TITLE "47:cjc135_7648"
    INDEX 01 17:24:30
  TRACK 787 AUDIO
    TITLE "0:"
    INDEX 01 17:25:35
  TRACK 788 AUDIO
    TITLE "48:cjc135_7649"
    INDEX 01 17:26:09
  TRACK 789 AUDIO
    TITLE "0:"
    INDEX 01 17:27:73
  TRACK 790 AUDIO
    TITLE "49:cjc135_7650"
    INDEX 01 17:28:22
  TRACK 791 AUDIO
    TITLE "0:"
    INDEX 01 17:29:68
  TRACK 792 AUDIO
    TITLE "50:cjc135_7651"
    INDEX 01 17:30:17
  TRACK 793 AUDIO
    TITLE "0:"
    INDEX 01 17:31:63
  TRACK 794 AUDIO
    TITLE "47:cjc135_7652"
    INDEX 01 17:32:62
  TRACK 795 AUDIO
    TITLE "0:"
    INDEX 01 17:34:28
  TRACK 796 AUDIO
    TITLE "48:cjc135_7653"
    INDEX 01 17:35:02
  TRACK 797 AUDIO
    TITLE "0:"
    INDEX 01 17:38:04
  TRACK 798 AUDIO
    TITLE "49:cjc135_7654"
    INDEX 01 17:38:32
  TRACK 799 AUDIO
    TITLE "0:"
    INDEX 01 17:40:27
  TRACK 800 AUDIO
    TITLE "50:cjc135_7655"
    INDEX 01 17:40:52
  TRACK 801 AUDIO
    TITLE "0:"
    INDEX 01 17:42:47
